<svg width="26" height="26" viewBox="0 0 26 26" fill="none" xmlns="http://www.w3.org/2000/svg">
<path d="M13 3C7.47833 3 3 7.59069 3 13.2528C3 17.7828 5.865 21.6259 9.83917 22.9819C10.3383 23.0767 10.5 22.7589 10.5 22.4889V20.5801C7.71833 21.2004 7.13917 19.3703 7.13917 19.3703C6.68417 18.1853 6.02833 17.87 6.02833 17.87C5.12083 17.2335 6.0975 17.2471 6.0975 17.2471C7.10167 17.3189 7.63 18.304 7.63 18.304C8.52167 19.871 9.96917 19.4182 10.54 19.1559C10.6292 18.4937 10.8883 18.0409 11.175 17.7854C8.95417 17.5248 6.61917 16.6456 6.61917 12.7179C6.61917 11.5978 7.01 10.6836 7.64917 9.96593C7.54583 9.70704 7.20333 8.66382 7.74667 7.25235C7.74667 7.25235 8.58667 6.97723 10.4975 8.30326C11.295 8.07599 12.15 7.96236 13 7.95808C13.85 7.96236 14.7058 8.07599 15.505 8.30326C17.4142 6.97723 18.2525 7.25235 18.2525 7.25235C18.7967 8.66467 18.4542 9.7079 18.3508 9.96593C18.9925 10.6836 19.38 11.5987 19.38 12.7179C19.38 16.6559 17.0408 17.5231 14.8142 17.7769C15.1725 18.0947 15.5 18.7184 15.5 19.6753V22.4889C15.5 22.7614 15.66 23.0818 16.1675 22.981C20.1383 21.6234 23 17.7811 23 13.2528C23 7.59069 18.5225 3 13 3Z" fill="#141414"/>
</svg>
