<svg width="26" height="26" viewBox="0 0 26 26" fill="none" xmlns="http://www.w3.org/2000/svg">
<path d="M17.4806 3H8.51916C5.4759 3 3 5.47601 3 8.51928V17.4807C3 20.5241 5.4759 23 8.51916 23H17.4806C20.5241 23 23 20.524 23 17.4807V8.51928C23.0001 5.47601 20.5241 3 17.4806 3ZM21.2256 17.4807C21.2256 19.5456 19.5456 21.2255 17.4807 21.2255H8.51916C6.45435 21.2256 4.7745 19.5456 4.7745 17.4807V8.51928C4.7745 6.45447 6.45435 4.7745 8.51916 4.7745H17.4806C19.5455 4.7745 21.2255 6.45447 21.2255 8.51928V17.4807H21.2256Z" fill="#141414"/>
<path d="M13.0001 7.84692C10.1584 7.84692 7.84656 10.1587 7.84656 13.0004C7.84656 15.842 10.1584 18.1537 13.0001 18.1537C15.8417 18.1537 18.1535 15.842 18.1535 13.0004C18.1535 10.1587 15.8417 7.84692 13.0001 7.84692ZM13.0001 16.3791C11.1369 16.3791 9.62105 14.8634 9.62105 13.0003C9.62105 11.1371 11.1368 9.6213 13.0001 9.6213C14.8633 9.6213 16.3791 11.1371 16.3791 13.0003C16.3791 14.8634 14.8632 16.3791 13.0001 16.3791Z" fill="#141414"/>
<path d="M18.3697 6.34204C18.0278 6.34204 17.6919 6.48045 17.4505 6.72297C17.2078 6.9643 17.0684 7.30027 17.0684 7.64334C17.0684 7.98534 17.208 8.3212 17.4505 8.56371C17.6918 8.80504 18.0278 8.94464 18.3697 8.94464C18.7127 8.94464 19.0475 8.80504 19.29 8.56371C19.5325 8.3212 19.671 7.98523 19.671 7.64334C19.671 7.30027 19.5325 6.9643 19.29 6.72297C19.0487 6.48045 18.7127 6.34204 18.3697 6.34204Z" fill="#141414"/>
</svg>
