<svg width="26" height="26" viewBox="0 0 26 26" fill="none" xmlns="http://www.w3.org/2000/svg">
<path fill-rule="evenodd" clip-rule="evenodd" d="M13.8307 11.9825V11.9532C13.8247 11.963 13.8165 11.9729 13.8113 11.9825H13.8307Z" fill="#141414"/>
<path fill-rule="evenodd" clip-rule="evenodd" d="M3 3V23H23V3H3ZM9.22075 19.6155H6.25345V10.6882H9.22075V19.6155ZM7.7371 9.46971H7.71749C6.72211 9.46971 6.07692 8.78396 6.07692 7.92681C6.07692 7.05086 6.74097 6.38453 7.75653 6.38453C8.77231 6.38453 9.39653 7.05086 9.41596 7.92681C9.41596 8.78396 8.77231 9.46971 7.7371 9.46971ZM19.9231 19.6155H16.955V14.8393C16.955 13.6397 16.5262 12.8209 15.4519 12.8209C14.6315 12.8209 14.144 13.3722 13.9292 13.9063C13.8512 14.0971 13.8308 14.3622 13.8308 14.6298V19.6155H10.8621C10.8621 19.6155 10.9019 11.5257 10.8621 10.6882H13.8308V11.9532C14.2252 11.3463 14.9291 10.4786 16.5058 10.4786C18.459 10.4786 19.9231 11.7542 19.9231 14.4961V19.6155Z" fill="#141414"/>
</svg>
