<svg width="16" height="16" viewBox="0 0 16 16" fill="none" xmlns="http://www.w3.org/2000/svg">
<mask id="mask0_705_367" style="mask-type:alpha" maskUnits="userSpaceOnUse" x="2" y="0" width="12" height="16">
<path d="M12.6667 0H3.33333C2.59695 0 2 0.447715 2 1V15C2 15.5523 2.59695 16 3.33333 16H12.6667C13.403 16 14 15.5523 14 15V1C14 0.447715 13.403 0 12.6667 0Z" fill="url(#paint0_linear_705_367)"/>
</mask>
<g mask="url(#mask0_705_367)">
<path d="M3.33333 0.1H12.6667C13.0153 0.1 13.3271 0.206113 13.5495 0.372893C13.7718 0.539651 13.9 0.76239 13.9 1V15C13.9 15.2376 13.7718 15.4603 13.5495 15.6271C13.3271 15.7939 13.0153 15.9 12.6667 15.9H3.33333C2.98469 15.9 2.6729 15.7939 2.45052 15.6271C2.22818 15.4603 2.1 15.2376 2.1 15V1C2.1 0.76239 2.22818 0.539651 2.45052 0.372893C2.6729 0.206113 2.98469 0.1 3.33333 0.1Z" fill="url(#paint1_linear_705_367)" stroke="black" stroke-width="0.2"/>
<rect x="6" y="13.5" width="4" height="0.75" rx="0.375" fill="#BABABA"/>
<rect x="5" y="1.5" width="6" height="2" rx="1" fill="black"/>
</g>
<defs>
<linearGradient id="paint0_linear_705_367" x1="2" y1="0" x2="9.54321" y2="17.8802" gradientUnits="userSpaceOnUse">
<stop stop-color="#1846BC"/>
<stop offset="1" stop-color="#6993FF"/>
</linearGradient>
<linearGradient id="paint1_linear_705_367" x1="2" y1="0" x2="9.54321" y2="17.8802" gradientUnits="userSpaceOnUse">
<stop stop-color="#6993FF"/>
<stop offset="1" stop-color="#1846BC"/>
</linearGradient>
</defs>
</svg>
