<svg width="490" height="3741" viewBox="0 0 490 3741" fill="none" xmlns="http://www.w3.org/2000/svg">
<path d="M242 0H248V3109H242V0Z" fill="#7B7B7B"/>
<path d="M185 3198.5C185 3193.81 188.806 3190 193.5 3190H295.5C300.194 3190 304 3193.81 304 3198.5V3203.19C304 3207.61 300.63 3211.28 296.226 3211.61C284.461 3212.49 261.735 3214 245 3214C228.181 3214 204.802 3212.47 192.798 3211.6C188.385 3211.27 185 3207.6 185 3203.17V3198.5Z" fill="#7B7B7B"/>
<path d="M184.5 3207.5C184.5 3207.5 215 3216.5 245 3216.5C275 3216.5 306 3207.5 306 3207.5" stroke="#707070" stroke-width="8" stroke-linejoin="bevel"/>
<path d="M265 3194C265 3205.05 256.046 3214 245 3214C233.954 3214 225 3205.05 225 3194V3191H265V3194Z" fill="#DFDFDA"/>
<g filter="url(#filter0_d_721_640)">
<path d="M265 3194C265 3205.05 256.046 3214 245 3214C233.954 3214 225 3205.05 225 3194V3191H265V3194Z" fill="#E6E1BD"/>
</g>
<g filter="url(#filter1_f_721_640)">
<rect x="188" y="3193" width="114" height="234" fill="url(#paint0_linear_721_640)" fill-opacity="0.35"/>
</g>
<g filter="url(#filter2_f_721_640)">
<path d="M241.501 3193H296L482 3733H8L194 3193H241.501Z" fill="url(#paint1_linear_721_640)" fill-opacity="0.25"/>
</g>
<path d="M237 3116C237 3111.58 240.582 3108 245 3108C249.418 3108 253 3111.58 253 3116V3122H237V3116Z" fill="#8D8D8D"/>
<path d="M216 3143C216 3129.75 226.745 3119 240 3119H250C263.255 3119 274 3129.75 274 3143V3155H216V3143Z" fill="#686868"/>
<path d="M183 3208C183 3173.76 210.758 3146 245 3146C279.242 3146 307 3173.76 307 3208V3210.79L307 3211.5C307 3211.5 306.489 3210.79 306.451 3210.79C304.346 3205.58 294.173 3193 245 3193C195.14 3193 185.377 3205.93 183.465 3211L183 3211.5V3211L183 3208Z" fill="#707070"/>
<defs>
<filter id="filter0_d_721_640" x="213" y="3183" width="64" height="47" filterUnits="userSpaceOnUse" color-interpolation-filters="sRGB">
<feFlood flood-opacity="0" result="BackgroundImageFix"/>
<feColorMatrix in="SourceAlpha" type="matrix" values="0 0 0 0 0 0 0 0 0 0 0 0 0 0 0 0 0 0 127 0" result="hardAlpha"/>
<feOffset dy="4"/>
<feGaussianBlur stdDeviation="6"/>
<feComposite in2="hardAlpha" operator="out"/>
<feColorMatrix type="matrix" values="0 0 0 0 1 0 0 0 0 1 0 0 0 0 1 0 0 0 0.5 0"/>
<feBlend mode="normal" in2="BackgroundImageFix" result="effect1_dropShadow_721_640"/>
<feBlend mode="normal" in="SourceGraphic" in2="effect1_dropShadow_721_640" result="shape"/>
</filter>
<filter id="filter1_f_721_640" x="164" y="3169" width="162" height="282" filterUnits="userSpaceOnUse" color-interpolation-filters="sRGB">
<feFlood flood-opacity="0" result="BackgroundImageFix"/>
<feBlend mode="normal" in="SourceGraphic" in2="BackgroundImageFix" result="shape"/>
<feGaussianBlur stdDeviation="12" result="effect1_foregroundBlur_721_640"/>
</filter>
<filter id="filter2_f_721_640" x="0" y="3185" width="490" height="556" filterUnits="userSpaceOnUse" color-interpolation-filters="sRGB">
<feFlood flood-opacity="0" result="BackgroundImageFix"/>
<feBlend mode="normal" in="SourceGraphic" in2="BackgroundImageFix" result="shape"/>
<feGaussianBlur stdDeviation="4" result="effect1_foregroundBlur_721_640"/>
</filter>
<linearGradient id="paint0_linear_721_640" x1="245" y1="3193" x2="245" y2="3427" gradientUnits="userSpaceOnUse">
<stop stop-color="#E5E1BD"/>
<stop offset="1" stop-color="#E5E1BD" stop-opacity="0"/>
</linearGradient>
<linearGradient id="paint1_linear_721_640" x1="245" y1="3193" x2="245" y2="3733" gradientUnits="userSpaceOnUse">
<stop stop-color="#E5E1BD"/>
<stop offset="1" stop-color="#E5E1BD" stop-opacity="0"/>
</linearGradient>
</defs>
</svg>
