<svg width={size} height={size} viewBox="0 0 26 26" fill="none" xmlns="http://www.w3.org/2000/svg">
<path d="M22.75 13.8558C22.5796 15.6999 21.8875 17.4573 20.7548 18.9224C19.622 20.3874 18.0955 21.4996 16.3537 22.1288C14.6119 22.7579 12.727 22.878 10.9195 22.4749C9.11195 22.0719 7.45659 21.1624 6.14709 19.8529C4.83759 18.5434 3.92812 16.8881 3.52508 15.0805C3.12205 13.273 3.24212 11.3881 3.87126 9.64632C4.5004 7.90455 5.61258 6.37798 7.07766 5.24523C8.54274 4.11248 10.3001 3.42041 12.1442 3.25C11.0645 4.71062 10.545 6.51024 10.6801 8.32153C10.8152 10.1328 11.5959 11.8355 12.8802 13.1198C14.1645 14.4042 15.8672 15.1849 17.6785 15.3199C19.4898 15.455 21.2894 14.9355 22.75 13.8558V13.8558Z" stroke={color} stroke-width="1.5" stroke-linecap="round" stroke-linejoin="round"/>
</svg>
