<svg width="713" height="454" viewBox="0 0 713 454" fill="none" xmlns="http://www.w3.org/2000/svg">
<g id="svg">
<g id="Vector">
<path d="M644.603 434.964H341.731C340.303 434.964 338.892 434.894 337.501 434.757H152.928C131.021 434.757 113.262 416.395 113.262 393.745V384.375C113.262 357.23 91.9804 335.227 65.7281 335.227C38.8167 335.227 17 312.668 17 284.844V284.842C17 257.016 38.8164 234.459 65.7278 234.459H73.7106C99.9634 234.459 121.245 212.456 121.245 185.312C121.245 162.662 139.004 144.3 160.911 144.3H213.439C200.284 136.2 191.37 120.56 191.37 102.593V102.591C191.37 76.3085 210.441 55 233.967 55H532.999C554.133 55 571.268 74.1452 571.268 97.7577C571.268 126.058 591.802 148.998 617.132 148.998H624.833C650.797 148.998 671.847 172.513 671.847 201.524C671.847 230.532 650.797 254.049 624.833 254.049C599.503 254.049 578.971 276.99 578.971 305.288V315.058C578.971 328.351 573.541 340.228 565.022 348.068H644.603C668.551 348.068 687.965 367.522 687.965 391.516C687.965 415.512 668.551 434.964 644.603 434.964ZM130.834 317.149C127.875 317.149 125.476 319.505 125.476 322.413V325.754C125.476 328.662 127.875 331.018 130.834 331.018L189.566 331.005V330.16H189.428C189.428 330.16 187.283 329.191 187.283 324.059C187.283 319.984 189.428 318.007 189.428 318.007H189.353C189.397 318.004 189.421 318.004 189.421 318.004L189.566 318.002V317.162H187.627C187.549 317.153 187.47 317.149 187.391 317.149H179.267C182.227 317.149 184.627 315.28 184.627 312.974V310.323C184.627 308.148 182.496 306.364 179.774 306.164H190.028V305.49H189.905C189.905 305.49 188.011 304.716 188.011 300.614C188.011 297.359 189.905 295.781 189.905 295.781H189.838C189.878 295.779 189.9 295.779 189.9 295.779L190.028 295.777V295.105H188.315C188.246 295.098 188.176 295.096 188.106 295.096H138.136C135.521 295.096 133.402 296.977 133.402 299.3V301.969C133.402 304.126 135.228 305.903 137.582 306.146H122.688C122.608 306.146 122.528 306.148 122.45 306.155H120.511V306.822L120.657 306.825C120.657 306.825 120.681 306.825 120.728 306.827H120.651C120.651 306.827 122.796 308.393 122.796 311.628C122.796 315.7 120.651 316.47 120.651 316.47H120.511V317.14L179.267 317.149H130.834ZM523.916 85.4135C523.205 85.4135 522.486 85.4339 521.766 85.4793C503.12 86.6551 488.955 102.783 490.124 121.502C491.25 139.498 506.135 153.339 523.853 153.339C524.564 153.339 525.282 153.316 526.003 153.271C544.647 152.097 558.814 135.969 557.645 117.248C556.519 99.2514 541.631 85.4135 523.916 85.4135Z" fill="url(#paint0_linear_386_776)"/>
<path d="M520.962 160C500.012 160 482.411 143.496 481.08 122.035C479.697 99.7136 496.447 80.4807 518.495 79.0785C519.347 79.0244 520.196 79 521.038 79C541.985 79 559.589 95.5016 560.92 116.962C562.303 139.286 545.551 158.519 523.505 159.919C522.653 159.973 521.804 160 520.962 160Z" fill="url(#paint1_linear_386_776)"/>
</g>
<path id="path16" d="M644.514 436.394H341.642C340.214 436.394 338.803 436.323 337.412 436.187H152.839C130.932 436.187 113.173 417.825 113.173 395.175V385.805C113.173 358.66 91.8915 336.657 65.6392 336.657H65.639C38.7276 336.657 16.9111 314.098 16.9111 286.274V286.272C16.9111 258.446 38.7276 235.889 65.639 235.889H73.6218C99.8745 235.889 121.156 213.886 121.156 186.741C121.156 164.091 138.915 145.729 160.822 145.729H213.35C200.195 137.63 191.281 121.99 191.281 104.023V104.02C191.281 77.7384 210.352 56.4299 233.878 56.4299H532.91C554.044 56.4299 571.179 75.5751 571.179 99.1876C571.179 127.488 591.713 150.428 617.043 150.428H624.744C650.708 150.428 671.758 173.943 671.758 202.954C671.758 231.962 650.708 255.479 624.744 255.479C599.414 255.479 578.883 278.42 578.883 306.718V316.488C578.883 329.781 573.452 341.658 564.933 349.498H644.514C668.462 349.498 687.876 368.952 687.876 392.946C687.876 416.942 668.462 436.394 644.514 436.394M130.745 318.579C127.786 318.579 125.387 320.935 125.387 323.843V327.184C125.387 330.092 127.786 332.448 130.745 332.448L167.495 332.435H189.478V331.59H189.339C189.339 331.59 187.194 330.621 187.194 325.488C187.194 321.414 189.339 319.437 189.339 319.437H189.264C189.308 319.434 189.332 319.434 189.332 319.434L189.478 319.432V318.592H187.538C187.46 318.583 187.382 318.579 187.302 318.579H179.178C182.138 318.579 184.538 316.71 184.538 314.404V311.753C184.538 309.578 182.407 307.794 179.685 307.594H189.939V306.92H189.817C189.817 306.92 187.922 306.146 187.922 302.044C187.922 298.789 189.817 297.211 189.817 297.211H189.749C189.789 297.209 189.811 297.209 189.811 297.209L189.939 297.207V296.535H188.226C188.158 296.528 188.088 296.526 188.017 296.526H138.047C135.432 296.526 133.313 298.407 133.313 300.73V303.399C133.313 305.556 135.14 307.333 137.493 307.576H122.599C122.519 307.576 122.439 307.578 122.362 307.585H120.422V308.252L120.568 308.255C120.568 308.255 120.593 308.255 120.639 308.257H120.562C120.562 308.257 122.707 309.823 122.707 313.058C122.707 317.13 120.562 317.9 120.562 317.9H120.422V318.569H141.881L179.178 318.579H130.745M523.827 86.8433C523.116 86.8433 522.398 86.8638 521.677 86.9092C503.031 88.085 488.866 104.213 490.035 122.932C491.161 140.928 506.046 154.769 523.764 154.769C524.475 154.769 525.193 154.746 525.914 154.7C544.558 153.527 558.725 137.398 557.556 118.678C556.43 100.681 541.542 86.8433 523.827 86.8433Z" fill="url(#paint2_linear_386_776)"/>
<path id="path18" d="M208.585 302.421C207.671 302.419 206.931 301.917 206.933 301.302C206.934 300.687 207.676 300.189 208.591 300.189C209.505 300.192 210.245 300.693 210.243 301.308C210.242 301.926 209.499 302.423 208.585 302.421ZM208.596 298.23C209.244 298.233 209.768 298.557 209.767 298.957C209.766 299.356 209.24 299.679 208.592 299.676C207.944 299.674 207.419 299.349 207.42 298.95C207.421 298.55 207.947 298.228 208.596 298.23V298.23ZM208.598 297.347C207.39 297.345 206.408 298.741 206.404 300.464C206.399 302.189 207.375 303.59 208.582 303.592C209.79 303.594 210.772 302.201 210.777 300.475C210.781 298.75 209.805 297.352 208.598 297.347Z" fill="#4A6CBD"/>
<path id="path20" d="M203.634 304.241C203.175 305.233 202.934 306.312 202.931 307.406L202.875 330.262C202.872 331.642 203.998 332.764 205.389 332.768L218.434 332.8C219.826 332.802 220.957 331.688 220.961 330.308L221.017 307.449C221.019 306.357 220.784 305.276 220.33 304.282L203.634 304.241" fill="#663199"/>
<path id="path22" d="M203.634 304.241C203.175 305.233 202.934 306.312 202.931 307.406L202.875 330.262C202.872 331.642 203.998 332.764 205.389 332.768L218.434 332.8C219.826 332.802 220.957 331.688 220.961 330.308L221.017 307.449C221.019 306.357 220.784 305.276 220.33 304.282L203.634 304.241" fill="#663199"/>
<path id="path24" d="M221.018 307.449L220.962 330.308C220.958 331.688 219.826 332.805 218.436 332.8L205.391 332.768C203.997 332.766 202.873 331.642 202.876 330.262L202.933 307.406C202.935 306.314 203.175 305.236 203.634 304.241L220.329 304.284C220.783 305.279 221.02 306.359 221.018 307.449" fill="#F35F52"/>
<path id="path26" d="M206.334 330.271L206.39 307.415C206.393 306.321 206.634 305.242 207.093 304.25L203.634 304.241C203.175 305.233 202.934 306.312 202.931 307.406L202.875 330.262C202.872 331.642 203.998 332.764 205.389 332.768L208.848 332.775C207.456 332.773 206.331 331.652 206.334 330.271" fill="#F47374"/>
<path id="path28" d="M221.018 307.449L220.962 330.308C220.958 331.688 219.826 332.805 218.436 332.8L213.102 332.789C214.507 332.791 215.652 331.674 215.655 330.294L215.711 307.435C215.713 306.346 215.473 305.265 215.016 304.271L220.329 304.284C220.783 305.279 221.02 306.359 221.018 307.449" fill="#B14A40"/>
<path id="path30" d="M220.33 304.282L203.632 304.241C203.634 303.51 204.233 302.92 204.969 302.922L218.999 302.956C219.735 302.959 220.332 303.551 220.33 304.282" fill="#1B375A"/>
<path id="path32" d="M220.973 325.795L202.888 325.75L202.881 328.589L220.966 328.635L220.973 325.795Z" fill="#375491"/>
<path id="path34" d="M187.201 296.882H189.196C188.869 296.659 188.461 296.526 188.017 296.526H138.047C135.433 296.526 133.313 298.407 133.313 300.73V303.399C133.313 305.721 135.433 307.603 138.047 307.603L187.458 307.59L187.201 296.882Z" fill="#82A9DE"/>
<path id="path36" d="M158.832 296.535C156.332 296.535 154.305 298.335 154.305 300.555V303.574C154.305 305.794 156.332 307.594 158.832 307.594H189.939V306.92H189.811L181.903 306.255L180.304 300.684C180.304 300.684 183.389 297.608 183.591 297.529C183.792 297.449 189.811 297.209 189.811 297.209L189.939 297.207V296.535H158.832Z" fill="#4A6CBD"/>
<path id="path38" d="M187.922 302.044C187.922 298.789 189.817 297.211 189.817 297.211H159.469C157.172 297.211 155.311 298.864 155.311 300.902V303.227C155.311 305.265 157.172 306.92 159.469 306.92H189.817C189.817 306.92 187.922 306.146 187.922 302.044Z" fill="#F7D99B"/>
<path id="path42" d="M155.432 304.112C155.361 303.855 155.319 303.588 155.312 303.313C155.312 303.311 155.312 303.311 155.312 303.311C155.312 303.304 155.312 303.297 155.311 303.29C155.311 303.286 155.311 303.283 155.311 303.279C155.311 303.277 155.311 303.274 155.311 303.272C155.311 303.265 155.311 303.258 155.311 303.252C155.311 303.249 155.311 303.249 155.311 303.247C155.311 303.24 155.311 303.233 155.311 303.227V300.902C155.311 298.864 157.172 297.211 159.469 297.211H189.817C189.817 297.211 170.87 297.449 162.152 299.057C158.417 299.747 156.455 301.887 155.432 304.112Z" fill="#CACB9A"/>
<path id="path44" d="M186.378 319.028H188.636C188.266 318.747 187.805 318.579 187.302 318.579H130.745C127.786 318.579 125.387 320.935 125.387 323.843V327.184C125.387 330.092 127.786 332.448 130.745 332.448L186.669 332.428L186.378 319.028" fill="#59C69F"/>
<path id="path46" d="M154.27 318.592C151.44 318.592 149.146 320.846 149.146 323.625V327.402C149.146 330.181 151.44 332.435 154.27 332.435H189.478V331.59H189.332L180.382 330.757L178.572 323.786C178.572 323.786 182.064 319.934 182.292 319.834C182.52 319.736 189.332 319.434 189.332 319.434L189.478 319.432V318.592H154.27" fill="#43927A"/>
<path id="path48" d="M187.194 325.489C187.194 321.414 189.339 319.437 189.339 319.437H154.991C152.392 319.437 150.285 321.507 150.285 324.061V326.966C150.285 329.52 152.392 331.59 154.991 331.59H189.339C189.339 331.59 187.194 330.621 187.194 325.489" fill="#F7D99B"/>
<path id="path50" d="M150.285 327.005V327.002V327.005ZM150.285 326.988C150.285 326.986 150.285 326.983 150.285 326.983C150.285 326.983 150.285 326.986 150.285 326.988Z" fill="#3C8777"/>
<path id="path52" d="M150.422 328.076C150.337 327.738 150.289 327.384 150.285 327.021C150.285 327.016 150.285 327.009 150.285 327.005V327.003C150.285 326.998 150.285 326.993 150.285 326.989C150.285 326.987 150.285 326.984 150.285 326.984C150.285 326.978 150.285 326.973 150.285 326.966V324.061C150.285 321.507 152.392 319.437 154.991 319.437H189.339C189.339 319.437 167.895 319.736 158.027 321.748C153.8 322.61 151.58 325.291 150.422 328.076Z" fill="#CACB9A"/>
<path id="path54" d="M123.523 307.93H121.265C121.634 307.71 122.097 307.576 122.599 307.576H179.178C182.139 307.576 184.538 309.446 184.538 311.753V314.404C184.538 316.71 182.139 318.579 179.178 318.579L123.232 318.565L123.523 307.93" fill="#F35F52"/>
<path id="path56" d="M155.644 307.585C158.475 307.585 160.77 309.374 160.77 311.578V314.577C160.77 316.783 158.475 318.57 155.644 318.57H120.422V317.9H120.568L129.522 317.239L131.332 311.707C131.332 311.707 127.839 308.65 127.611 308.572C127.383 308.493 120.568 308.255 120.568 308.255L120.422 308.252V307.585H155.644" fill="#B14A40"/>
<path id="path58" d="M122.707 313.058C122.707 309.823 120.562 308.257 120.562 308.257H154.923C157.523 308.257 159.631 309.898 159.631 311.925V314.232C159.631 316.256 157.523 317.9 154.923 317.9H120.562C120.562 317.9 122.707 317.13 122.707 313.058" fill="#F7D99B"/>
<path id="path62" d="M159.494 315.112C158.335 312.901 156.114 310.774 151.886 310.091C142.014 308.493 120.562 308.257 120.562 308.257H154.923C157.523 308.257 159.631 309.898 159.631 311.925V314.232C159.631 314.236 159.631 314.241 159.631 314.245V314.247C159.631 314.252 159.631 314.254 159.631 314.259V314.261C159.631 314.266 159.631 314.27 159.631 314.272C159.631 314.275 159.631 314.275 159.631 314.275C159.626 314.563 159.579 314.842 159.494 315.112" fill="#CACB9A"/>
<path id="path64" d="M308.219 435.627L302.915 434.619L325.834 312.815L331.14 313.823L308.219 435.627Z" fill="#1E4150"/>
<path id="path66" d="M484.144 436.18H490.524L466.749 312.815L461.445 313.823L484.144 436.18Z" fill="#1E4150"/>
<path id="path68" d="M367.334 436.18H373.714L349.939 312.815L344.633 313.823L367.334 436.18" fill="#1E4150"/>
<path id="path70" d="M426.012 436.18L420.831 436.242L443.628 313.369L448.932 314.377L426.012 436.18Z" fill="#1E4150"/>
<path id="path72" d="M402.869 146.669C423.874 148.923 451.057 151.302 478.344 197.699C508.169 248.411 492.471 324.158 468.931 345.208C445.39 366.258 368.506 392.247 303.876 353.337C303.876 353.337 264.852 329.758 284.881 290.624C315.7 230.403 311.346 217.843 325.125 194.242C338.905 170.643 358.283 141.886 402.869 146.669Z" fill="#F7D99B"/>
<path id="path74" d="M478.344 197.699C459.718 166.032 441.145 154.873 424.549 150.26C430.967 156.916 437.474 165.478 443.99 176.554C473.815 227.266 458.114 303.013 434.574 324.063C413.698 342.729 350.872 365.275 291.843 343.004C297.912 349.734 303.876 353.337 303.876 353.337C368.506 392.247 445.39 366.258 468.93 345.208C492.471 324.158 508.169 248.411 478.344 197.699Z" fill="#F3C267"/>
<path id="path84" d="M210.709 215.555L270.732 215.103C272.102 215.092 273.203 213.97 273.194 212.597L272.893 172.393C272.882 171.02 271.762 169.914 270.392 169.925L210.371 170.377C209 170.386 207.897 171.508 207.908 172.881L208.209 213.087C208.219 214.46 209.339 215.564 210.709 215.555" fill="#F35F52"/>
<path id="path86" d="M271.053 192.289L290.431 212.075L266.524 207.605L271.053 192.289Z" fill="#F35F52"/>
<g id="path104" filter="url(#filter0_i_386_776)">
<path d="M376.41 108.067C376.41 108.067 385.08 97.5467 392.053 110.346C392.053 110.346 397.422 106.874 401.192 113.058C401.192 113.058 410.898 109.695 413.254 126.399C413.254 126.399 418.247 125.316 418.905 132.151C419.566 138.983 416.55 143.538 416.55 143.538C416.55 143.538 419.355 145.963 418.083 152.244C416.997 157.587 413.159 158.401 413.159 158.401C413.159 158.401 412.122 167.403 408.731 170.117C405.339 172.829 400.721 171.526 400.721 171.526C400.721 171.526 399.497 176.408 395.538 175.973C391.58 175.54 386.682 171.201 382.252 173.154C377.824 175.105 366.328 173.045 366.328 173.045C366.328 173.045 353.42 166.429 357.282 151.241C357.282 151.241 350.499 144.19 356.436 135.73C356.436 135.73 352.101 122.495 360.676 114.686C369.249 106.874 376.41 108.067 376.41 108.067" fill="#333333"/>
</g>
<path id="path88" d="M253.569 189.5L247.735 189.395C247.735 189.395 240.388 183.897 240.161 181.954C239.937 180.011 241.142 175.898 240.003 175.38C238.863 174.865 236.448 174.456 234.923 177.031C233.815 178.899 234.737 185.716 234.053 186.172C233.623 186.458 230.269 186.492 227.82 186.478C226.208 186.469 224.727 187.357 223.972 188.782L223.969 188.787C223.459 189.752 223.691 190.941 224.527 191.64L225.828 192.73L224.804 194.094C224.042 195.109 224.24 196.548 225.248 197.32L226.275 198.103L225.572 198.907C224.666 199.939 224.857 201.533 225.981 202.321L226.894 202.963L226.758 203.215C226.187 204.268 226.514 205.583 227.51 206.243L228.427 206.852L243.961 207.126C245.415 207.153 246.861 206.881 248.207 206.327L253.687 205.519C254.276 205.433 254.711 204.927 254.713 204.33L254.75 190.707C254.75 190.049 254.224 189.513 253.569 189.5" fill="#EFEFEF"/>
<path id="path90" d="M335.432 223.747L330.033 239.975L346.488 233.49L335.432 223.747Z" fill="#F68480"/>
<path id="path92" d="M352.395 175.457C351.298 175.503 348.292 176.506 343.896 184.801C338.284 195.393 330.08 227.39 330.08 227.39L354.567 236.495L357.712 229.817L362.894 178.402C362.894 178.402 352.698 175.444 352.395 175.457Z" fill="#E4E4E4"/>
<path id="path94" d="M384.764 170.845C377.761 170.854 360.435 172.895 352.395 175.46C352.395 175.46 346.488 226.158 357.712 264.682C360.227 273.306 355.635 300.432 355.635 300.432L428.194 299.477C428.194 299.477 419.598 233.899 422.836 223.307C426.074 212.715 426.151 175.8 426.151 175.8C426.151 175.8 425.654 175.723 409.849 172.994C402.477 171.723 392.241 170.836 384.764 170.845" fill="#EFEFEF"/>
<path id="path96" d="M393.219 394.531C393.219 394.531 391.613 413.031 388.663 418.154C385.711 423.278 388.817 431.986 388.974 433.182C389.128 434.376 395.186 436.085 404.817 435.059C414.448 434.035 414.292 431.815 413.515 428.229C412.74 424.642 407.613 420.032 407.303 416.618C406.992 413.201 410.255 400.907 410.255 400.907L393.219 394.531Z" fill="#F68D82"/>
<path id="path98" d="M363.82 285.162C363.82 285.162 313.734 282.386 302.548 289.148C291.365 295.913 304.571 309.803 304.571 309.803C304.571 309.803 345.348 327.504 413.615 331.438C429.78 332.371 431.173 289.35 428.151 285.791C425.129 282.231 363.82 285.162 363.82 285.162Z" fill="#090909"/>
<path id="path100" d="M406.018 436.496C415.935 435.44 414.709 430.576 413.909 426.883C413.409 424.572 410.563 421.845 408.868 419.267C407.982 419.973 406.539 421.217 402.232 422.488C397.76 423.807 391.629 421.196 387.723 419.56C386.332 424.735 386.268 431.334 386.397 432.335C386.558 433.565 396.101 437.552 406.018 436.496" fill="#EFEFEF"/>
<path id="path102" d="M400.544 320.942C398.544 336.062 388.636 411.335 388.636 411.335L411.626 414.18C411.626 414.18 439.896 315.934 438.446 300.907C436.996 285.879 426.413 284.615 426.413 284.615C426.413 284.615 405.841 280.917 400.544 320.942" fill="#181818"/>
<path id="path106" d="M379.811 161.663L378.429 171.941C378.429 171.941 375.332 186.748 379.315 189.602C383.3 192.457 396.262 171.519 396.262 171.519L394.894 145.475L379.811 161.663" fill="#F68D82"/>
<path id="path108" d="M395.335 153.915C392.043 162.798 384.204 168.259 378.64 170.377L379.811 161.663L394.894 145.475L395.335 153.915Z" fill="#F35F52"/>
<path id="path110" d="M385.684 118.115C377.598 115.325 368.977 120.707 367.744 129.059C367.207 132.691 366.723 137.256 366.632 142.245C366.415 154.251 372.616 165.932 378.058 165.932C383.498 165.932 398.535 158.162 399.078 141.121C399.414 130.6 394.171 121.041 385.684 118.115Z" fill="#F68D82"/>
<path id="path112" d="M395.068 142.467C395.068 145.117 396.822 147.262 398.983 147.262C401.142 147.262 402.896 145.117 402.896 142.467C402.896 139.821 401.142 137.673 398.983 137.673C396.822 137.673 395.068 139.821 395.068 142.467Z" fill="#F68D82"/>
<g id="path114" filter="url(#filter1_di_386_776)">
<path d="M362.114 112.143C356.495 116.603 354.524 123.379 357.714 127.279C360.907 131.179 368.048 130.725 373.667 126.264C379.288 121.804 381.257 115.025 378.067 111.126C374.877 107.226 367.733 107.682 362.114 112.143" fill="#333333"/>
</g>
<path id="path116" d="M426.941 181.434C420.158 178.894 416.839 239.93 415.924 265.054C403.909 266.207 382.97 265.063 377.756 264.671C375.303 264.487 369.65 262.419 367.21 262.101C364.711 261.774 362.445 261.604 361.217 261.817C360.766 261.897 348.244 267.009 347.172 268.13C345.845 269.522 342.251 273.029 342.859 274.545C343.463 276.064 349.767 270.318 349.767 270.318L352.846 268.593C349.012 272.334 341.699 277.258 342.752 279.051C343.781 280.801 350.376 275.803 355.077 272.398C351.044 276.034 346.035 282.54 347.19 283.555C348.226 284.467 353.924 276.933 360.014 274.763C362.271 273.96 364.52 276.186 366.297 276.454C367.602 276.652 369.614 277.074 370.894 276.711L377.489 274.845C379.734 275.047 379.791 276.373 382.059 276.856C384.692 277.414 389.012 278.005 392.365 278.822C411.675 283.534 418.117 285.72 424.028 285.718C441.935 285.707 442.975 187.441 426.941 181.434" fill="#F68D82"/>
<path id="path118" d="M439.817 238.738C441.086 213.005 440.9 181.287 426.454 175.875C420.754 173.739 410.706 186.578 412.511 239.26C420.224 239.896 431.547 240.409 439.817 238.738" fill="#EFEFEF"/>
<path id="path120" d="M358.99 227.681H360.463L382.603 282.004L381.078 281.773L358.99 227.681Z" fill="#F68480"/>
<path id="path122" d="M325.993 410.355C325.993 410.355 327.998 416.777 324.407 421.024C320.814 425.271 305.888 429.439 303.93 431.738C301.97 434.038 302.118 435.997 302.118 435.997L344.009 434.846L343.554 422.213L341.624 413.135L325.993 410.355" fill="#F68D82"/>
<path id="path124" d="M321.799 423.142C321.799 423.142 332.563 427.489 337.763 424.917C342.963 422.343 342.806 421.628 344.311 422.588C345.815 423.548 346.355 435.391 346.355 435.391L299.249 436.773C295.971 436.698 294.313 434.287 296.977 432.224C298.803 430.807 300.912 429.861 302.113 429.175C305.797 427.064 321.799 423.142 321.799 423.142" fill="#EFEFEF"/>
<path id="path126" d="M327.579 297.016C324.341 290.213 316.978 281.355 304.021 286.69C291.664 291.779 288.347 304.284 292.246 317.09C296.145 329.897 321.813 405.177 322.708 415.526L343.201 415.662C343.201 415.662 339.476 356.054 338.563 341.646C337.684 327.783 333.184 308.793 327.579 297.016Z" fill="#181818"/>
<path id="path128" d="M294.31 227.681H362.817C364.629 227.681 366.263 228.777 366.949 230.459L388.042 282.004H425.811C426.867 282.004 427.723 282.862 427.723 283.92C427.723 284.976 426.867 285.834 425.811 285.834H318.319C315.365 285.834 312.685 284.095 311.475 281.394L290.234 233.989C288.907 231.029 291.07 227.681 294.31 227.681" fill="#F35F52"/>
<path id="path130" d="M331.193 257.697C331.657 260.013 333.671 261.561 335.697 261.154C337.72 260.75 338.984 258.544 338.522 256.229C338.06 253.913 336.044 252.365 334.02 252.771C331.997 253.175 330.731 255.382 331.193 257.697Z" fill="#EFEFEF"/>
<path id="path166" d="M526.895 352.794C526.462 348.947 525.946 345.015 524.162 341.583C521.997 337.408 518.193 334.398 514.867 331.082C508.654 324.885 503.874 317.248 501.003 308.942C498.785 302.518 497.679 295.674 494.621 289.609C492.754 285.904 490.207 282.592 488.087 279.028C483.075 270.604 480.345 260.65 473.548 253.6C472.241 262.149 474.826 271.22 480.438 277.78C482.112 279.734 484.054 281.498 485.329 283.736C487.645 287.802 487.434 292.76 487.706 297.434C488.216 306.218 490.685 314.883 494.884 322.606C499.345 330.812 505.781 338.119 508.165 347.153C509.952 353.925 509.42 361.52 513.231 367.388C513.643 368.024 514.117 368.662 514.216 369.415C514.273 369.837 514.207 370.266 514.142 370.686C514.058 371.231 513.972 371.778 513.886 372.323C513.02 377.864 512.123 384.915 516.876 389.062C520.17 391.938 524.409 392.002 526.777 388.184C529.158 384.338 528.948 378.713 528.771 374.387C528.476 367.182 527.706 359.956 526.895 352.794" fill="#43927A"/>
<path id="path168" d="M535.457 348.336C533.608 341.921 530.738 335.81 529.299 329.291C527.905 322.966 527.894 316.429 527.89 309.95C527.885 302.852 527.878 295.754 527.874 288.655C527.871 284.238 527.867 279.793 527.137 275.437C525.57 266.06 520.705 257.388 519.881 247.918C519.525 243.821 519.937 239.68 519.489 235.594C519.233 233.261 518.634 230.877 517.556 228.805C516.396 226.578 513.19 226.675 512.139 228.957C509.776 234.087 508.278 239.63 509.232 245.126C509.805 248.422 511.23 251.496 512.295 254.667C517.033 268.786 514.518 284.417 518.184 298.857C519.289 303.215 520.961 307.49 521.156 311.982C521.623 322.737 513.607 332.56 514.341 343.299C514.944 352.104 521.263 359.391 523.913 367.806C525.4 372.516 525.717 377.544 527.307 382.218C528.542 385.852 531.417 390.263 535.881 389.16C540.117 388.113 538.837 384.649 538.649 381.337C538.008 370.139 538.611 359.275 535.457 348.336" fill="#38816A"/>
<path id="path170" d="M545.156 354.215C544.97 350.881 544.408 347.53 544.873 344.223C545.267 341.431 546.375 338.8 547.168 336.096C548.652 331.027 549.019 325.706 549.379 320.435C550.034 310.854 550.687 301.272 551.339 291.69C552.356 276.795 553.376 261.858 556.156 247.194C556.928 243.122 557.794 238.709 555.968 234.99C555.583 234.207 554.824 233.376 553.994 233.638C553.403 233.824 553.113 234.475 552.898 235.061C546.821 251.605 544.526 269.415 537.743 285.68C536.118 289.577 534.229 293.409 533.388 297.547C532.378 302.518 532.933 307.651 533.064 312.722C533.25 319.993 532.543 327.32 530.54 334.31C529.491 337.967 528.087 341.542 527.513 345.303C526.795 349.995 527.398 354.774 527.847 359.498C528.707 368.58 529 377.717 528.721 386.835C528.556 392.197 533.073 392.056 536.064 388.762C538.157 386.458 538.137 383.93 538.855 381.063C541.207 371.649 545.727 364.421 545.156 354.215" fill="#43927A"/>
<path id="path172" d="M516.938 368.752C512.943 362.322 504.986 358.667 502.433 351.534C501.783 349.721 501.529 347.769 500.736 346.012C498.973 342.112 494.965 339.908 491.025 338.114C490.479 337.865 489.856 338.262 489.849 338.866C489.836 339.824 490.289 340.738 491.082 341.274C494.118 343.322 496.424 346.45 497.451 349.977C498.667 354.156 498.139 358.737 499.653 362.819C500.922 366.244 503.536 369.045 504.764 372.487C505.886 375.631 505.768 379.067 506.296 382.368C506.824 385.666 508.287 389.169 511.31 390.565C522.25 395.616 519.516 372.907 516.938 368.752" fill="#38816A"/>
<path id="path174" d="M562.441 366.63C562.271 369.738 562.744 372.997 561.53 375.862C560.753 377.696 559.357 379.176 558.209 380.802C554.183 386.511 552.721 394.596 546.534 397.808C546.126 398.022 545.67 398.212 545.217 398.126C544.583 398.008 544.168 397.395 543.912 396.801C542.397 393.259 544.098 389.271 545.106 385.55C545.283 384.899 545.43 384.175 545.122 383.576C544.78 382.917 544.003 382.631 543.473 382.114C542.417 381.085 542.517 379.381 542.725 377.914C543.251 374.257 543.987 370.63 544.934 367.057C545.469 365.032 546.087 362.989 547.254 361.25C548.534 359.334 550.399 357.904 552.141 356.401C559.847 349.762 565.749 341.031 569.054 331.391C569.768 329.302 570.407 327.098 571.884 325.464C573.361 323.829 575.994 322.989 577.793 324.256C579.073 325.159 573.83 333.611 573.218 334.623C571.472 337.52 571.449 340.039 570.461 343.254C568.041 351.135 562.903 358.188 562.441 366.63" fill="#43927A"/>
<path id="path176" d="M556.342 370.223C557.486 367.259 558.641 364.256 559.017 361.098C559.437 357.586 558.881 353.997 559.48 350.513C560.248 346.034 562.855 342.093 564.145 337.737C565.078 334.591 565.307 331.286 565.866 328.051C567.466 318.803 571.805 309.766 570.561 300.464C570.289 298.441 569.378 296.083 567.373 295.738C565.558 295.425 563.907 297.088 563.435 298.875C562.964 300.661 563.315 302.546 563.445 304.389C563.807 309.53 562.343 314.781 559.375 318.987C556.525 323.03 552.388 326.072 549.823 330.301C546.676 335.49 546.248 341.823 544.644 347.68C541.45 359.325 533.443 369.486 531.981 381.476C531.401 386.247 532.518 392.047 536.914 393.952C549.624 399.465 553.462 377.685 556.342 370.223" fill="#38816A"/>
<path id="path178" d="M534.12 385.006H504.95C502.956 385.006 501.483 386.874 501.945 388.824L512.578 433.749C512.909 435.148 514.153 436.133 515.585 436.133H532.088H534.12H550.625C552.055 436.133 553.299 435.148 553.63 433.749L564.264 388.824C564.724 386.874 563.254 385.006 561.258 385.006H534.12" fill="#F35F52"/>
<path id="path180" d="M241.448 339.76H99.6528V332.423H241.448V339.76" fill="#1E4150"/>
<path id="path182" d="M194.923 381.408H102.216V374.988H194.923V381.408Z" fill="#1E4150"/>
<path id="path184" d="M227.535 436.167V336.092H221.553V436.167H227.535" fill="#1E4150"/>
<path id="path186" d="M142.945 436.167V336.092H136.964V436.167H142.945Z" fill="#1E4150"/>
<path id="path188" d="M179.01 436.167L211.23 336.952L205.949 335.231L173.169 436.167H179.01Z" fill="#1E4150"/>
<path id="path190" d="M88.3739 436.167L115.932 336.734L110.581 335.245L82.6099 436.167H88.3739Z" fill="#1E4150"/>
<path id="path194" d="M696.4 435.554H45.1089V439.98H696.4V435.554Z" fill="#14293F"/>
<path id="path196" d="M373.128 152.61L383.661 152.437C383.661 152.437 383.484 156.448 378.853 156.657C373.209 156.914 373.128 152.61 373.128 152.61Z" fill="#EFEFEF"/>
</g>
<defs>
<filter id="filter0_i_386_776" x="354" y="104" width="65" height="76" filterUnits="userSpaceOnUse" color-interpolation-filters="sRGB">
<feFlood flood-opacity="0" result="BackgroundImageFix"/>
<feBlend mode="normal" in="SourceGraphic" in2="BackgroundImageFix" result="shape"/>
<feColorMatrix in="SourceAlpha" type="matrix" values="0 0 0 0 0 0 0 0 0 0 0 0 0 0 0 0 0 0 127 0" result="hardAlpha"/>
<feOffset dy="4"/>
<feGaussianBlur stdDeviation="2"/>
<feComposite in2="hardAlpha" operator="arithmetic" k2="-1" k3="1"/>
<feColorMatrix type="matrix" values="0 0 0 0 0 0 0 0 0 0 0 0 0 0 0 0 0 0 0.25 0"/>
<feBlend mode="normal" in2="shape" result="effect1_innerShadow_386_776"/>
</filter>
<filter id="filter1_di_386_776" x="354.188" y="108.475" width="31.4065" height="29.4563" filterUnits="userSpaceOnUse" color-interpolation-filters="sRGB">
<feFlood flood-opacity="0" result="BackgroundImageFix"/>
<feColorMatrix in="SourceAlpha" type="matrix" values="0 0 0 0 0 0 0 0 0 0 0 0 0 0 0 0 0 0 127 0" result="hardAlpha"/>
<feOffset dx="2" dy="4"/>
<feGaussianBlur stdDeviation="2"/>
<feComposite in2="hardAlpha" operator="out"/>
<feColorMatrix type="matrix" values="0 0 0 0 0 0 0 0 0 0 0 0 0 0 0 0 0 0 0.15 0"/>
<feBlend mode="normal" in2="BackgroundImageFix" result="effect1_dropShadow_386_776"/>
<feBlend mode="normal" in="SourceGraphic" in2="effect1_dropShadow_386_776" result="shape"/>
<feColorMatrix in="SourceAlpha" type="matrix" values="0 0 0 0 0 0 0 0 0 0 0 0 0 0 0 0 0 0 127 0" result="hardAlpha"/>
<feOffset dy="4"/>
<feGaussianBlur stdDeviation="2"/>
<feComposite in2="hardAlpha" operator="arithmetic" k2="-1" k3="1"/>
<feColorMatrix type="matrix" values="0 0 0 0 0 0 0 0 0 0 0 0 0 0 0 0 0 0 0.25 0"/>
<feBlend mode="normal" in2="shape" result="effect2_innerShadow_386_776"/>
</filter>
<linearGradient id="paint0_linear_386_776" x1="17" y1="244.982" x2="687.965" y2="244.982" gradientUnits="userSpaceOnUse">
<stop stop-color={color}/>
<stop offset="1" stop-color={color1}/>
</linearGradient>
<linearGradient id="paint1_linear_386_776" x1="17" y1="244.982" x2="687.965" y2="244.982" gradientUnits="userSpaceOnUse">
<stop stop-color={color}/>
<stop offset="1" stop-color={color1}/>
</linearGradient>
<linearGradient id="paint2_linear_386_776" x1="16.9111" y1="246.412" x2="687.876" y2="246.412" gradientUnits="userSpaceOnUse">
<stop stop-color={color}/>
<stop offset="1" stop-color={color1}/>
</linearGradient>
</defs>
</svg>
